<svg width="20" height="20" viewBox="0 0 20 20" fill="none" xmlns="http://www.w3.org/2000/svg">
<path d="M7.22435 11.667H3.33268C2.41602 11.667 1.66602 12.417 1.66602 13.3337V18.3337H7.22435V11.667Z" stroke="white" stroke-width="1.5" stroke-miterlimit="10" stroke-linecap="round" stroke-linejoin="round"/>
<path d="M11.1085 8.33301H8.88346C7.9668 8.33301 7.2168 9.08301 7.2168 9.99967V18.333H12.7751V9.99967C12.7751 9.08301 12.0335 8.33301 11.1085 8.33301Z" stroke="white" stroke-width="1.5" stroke-miterlimit="10" stroke-linecap="round" stroke-linejoin="round"/>
<path d="M16.6671 14.167H12.7754V18.3337H18.3337V15.8337C18.3337 14.917 17.5837 14.167 16.6671 14.167Z" stroke="white" stroke-width="1.5" stroke-miterlimit="10" stroke-linecap="round" stroke-linejoin="round"/>
<path d="M10.4325 1.72534L10.8742 2.60867C10.9325 2.73367 11.0909 2.85034 11.2242 2.867L12.0242 3.00034C12.5325 3.08367 12.6575 3.45866 12.2909 3.81699L11.6659 4.44199C11.5575 4.55032 11.4992 4.75033 11.5325 4.892L11.7075 5.65868C11.8492 6.26701 11.5242 6.50035 10.9909 6.18368L10.2409 5.74201C10.1075 5.65868 9.88255 5.65868 9.74922 5.74201L8.99921 6.18368C8.46588 6.50035 8.14088 6.26701 8.28255 5.65868L8.45755 4.892C8.49088 4.75033 8.43255 4.54199 8.32422 4.44199L7.70755 3.82533C7.34088 3.45866 7.45755 3.09199 7.97421 3.00866L8.77421 2.87534C8.90755 2.85034 9.06588 2.73368 9.12422 2.61701L9.56588 1.73366C9.80755 1.25032 10.1909 1.25034 10.4325 1.72534Z" stroke="white" stroke-width="1.5" stroke-linecap="round" stroke-linejoin="round"/>
</svg>
