<svg width="20" height="20" viewBox="0 0 20 20" fill="none" xmlns="http://www.w3.org/2000/svg">
<path d="M18.3327 10.8337V7.50033C18.3327 3.33366 16.666 1.66699 12.4993 1.66699H7.49935C3.33268 1.66699 1.66602 3.33366 1.66602 7.50033V12.5003C1.66602 16.667 3.33268 18.3337 7.49935 18.3337H10.8327" stroke="white" stroke-width="1.5" stroke-linecap="round" stroke-linejoin="round"/>
<path d="M18.3327 10.8337V7.50033C18.3327 3.33366 16.666 1.66699 12.4993 1.66699H7.49935C3.33268 1.66699 1.66602 3.33366 1.66602 7.50033V12.5003C1.66602 16.667 3.33268 18.3337 7.49935 18.3337H10.8327" stroke="white" stroke-width="1.5" stroke-linecap="round" stroke-linejoin="round"/>
<path d="M18.3327 10.8337V7.50033C18.3327 3.33366 16.666 1.66699 12.4993 1.66699H7.49935C3.33268 1.66699 1.66602 3.33366 1.66602 7.50033V12.5003C1.66602 16.667 3.33268 18.3337 7.49935 18.3337H10.8327" stroke="white" stroke-width="1.5" stroke-linecap="round" stroke-linejoin="round"/>
<path d="M13.334 16.192L14.6507 17.5003L17.5007 14.167" stroke="white" stroke-width="1.5" stroke-linecap="round" stroke-linejoin="round"/>
<path d="M5.83398 8.75V11.25" stroke="white" stroke-width="1.5" stroke-linecap="round" stroke-linejoin="round"/>
<path d="M10 8.75V11.25" stroke="white" stroke-width="1.5" stroke-linecap="round" stroke-linejoin="round"/>
<path d="M14.166 8.75V11.25" stroke="white" stroke-width="1.5" stroke-linecap="round" stroke-linejoin="round"/>
</svg>
