<svg width="20" height="20" viewBox="0 0 20 20" fill="none" xmlns="http://www.w3.org/2000/svg">
<path d="M7.47591 18.3337H12.4759C16.6426 18.3337 18.3092 16.667 18.3092 12.5003V7.50033C18.3092 3.33366 16.6426 1.66699 12.4759 1.66699H7.47591C3.30924 1.66699 1.64258 3.33366 1.64258 7.50033V12.5003C1.64258 16.667 3.30924 18.3337 7.47591 18.3337Z" stroke="white" stroke-width="1.5" stroke-linecap="round" stroke-linejoin="round"/>
<path d="M1.64258 10.5831L6.64258 10.5664C7.26758 10.5664 7.96758 11.0414 8.20091 11.6248L9.15091 14.0248C9.36758 14.5664 9.70924 14.5664 9.92591 14.0248L11.8342 9.1831C12.0176 8.71643 12.3592 8.69977 12.5926 9.14143L13.4592 10.7831C13.7176 11.2748 14.3842 11.6748 14.9342 11.6748H18.3176" stroke="white" stroke-width="1.5" stroke-linecap="round" stroke-linejoin="round"/>
</svg>
