<svg width="24" height="24" viewBox="0 0 24 24" fill="none" xmlns="http://www.w3.org/2000/svg">
<g clip-path="url(#clip0_1711_12673)">
<path d="M6.89063 1.33594C3.1125 2.06719 0.01875 2.66719 0.0140625 2.67188C0.0046875 2.67188 0 6.86719 0 12V21.3281L0.103125 21.3516C0.164062 21.3656 3.22969 21.9562 6.91406 22.6641C10.6031 23.3719 13.6641 23.9625 13.725 23.9766L13.8281 24V12C13.8281 5.4 13.8141 0 13.7953 0.00468636C13.7719 0.00468636 10.6688 0.604687 6.89063 1.33594ZM6.10781 8.8125C6.4875 9.60937 6.84375 10.3828 6.89531 10.5328C6.94219 10.6828 6.99844 10.8375 7.0125 10.875C7.02656 10.9172 7.11094 10.7531 7.21875 10.4766C7.3125 10.2187 7.71094 9.41719 8.1 8.69531L8.80781 7.38281L9.98438 7.36875L11.1656 7.35938L11.0719 7.50937C10.275 8.81719 8.42344 11.8969 8.40469 11.9391C8.39062 11.9766 10.7156 15.8578 11.1938 16.5844L11.2641 16.6875L10.0031 16.6781L8.74688 16.6641L7.9125 15.0938C7.40625 14.1328 7.05938 13.4297 7.02656 13.275C6.99375 13.1437 6.96094 13.0406 6.94688 13.05C6.9375 13.0641 6.88125 13.2094 6.82031 13.3734C6.76406 13.5422 6.35156 14.3531 5.90625 15.1828L5.1 16.6875H3.8625C3.18281 16.6875 2.625 16.6734 2.625 16.6594C2.625 16.6406 3.9375 14.5687 5.41875 12.2531L5.57344 12.0141L4.33125 9.88594C3.64688 8.71406 3.0375 7.66875 2.97188 7.55625L2.85469 7.35938H4.13906H5.41875L6.10781 8.8125Z" fill="white"/>
<path d="M14.7656 4.14844V5.53125H16.1719H17.5781V6.46875V7.40625H16.1719H14.7656V8.32031V9.23438H16.1484H17.5312V10.1484V11.0625H16.1484H14.7656V12V12.9375H16.1484H17.5312V13.8516V14.7656H16.1484H14.7656V15.6797V16.5938H16.1484H17.5312V17.5312V18.4688H16.1484H14.7656V19.8516V21.2344H19.0547C22.5938 21.2344 23.3719 21.225 23.4984 21.1687C23.6813 21.0938 23.8828 20.8828 23.9484 20.7047C23.9859 20.6109 24 17.9391 24 11.9953C24 4.81875 23.9906 3.39375 23.9344 3.26719C23.8594 3.08437 23.6484 2.88281 23.4703 2.81719C23.3813 2.77969 21.9656 2.76562 19.05 2.76562H14.7656V4.14844ZM22.1625 6.45469L22.1484 7.38281L20.3109 7.39687L18.4688 7.40625V6.46875V5.53125H20.3203H22.1719L22.1625 6.45469ZM22.1719 10.1484V11.0625H20.3203H18.4688V10.1484V9.23438H20.3203H22.1719V10.1484ZM22.1719 13.8516V14.7656H20.3203H18.4688V13.8516V12.9375H20.3203H22.1719V13.8516ZM22.1625 17.5406L22.1719 18.4688H20.3203H18.4688V17.5312V16.5938L20.3109 16.6031L22.1484 16.6172L22.1625 17.5406Z" fill="white"/>
</g>
<defs>
<clipPath id="clip0_1711_12673">
<rect width="24" height="24" fill="white"/>
</clipPath>
</defs>
</svg>
