<svg width="20" height="20" viewBox="0 0 20 20" fill="none" xmlns="http://www.w3.org/2000/svg">
<path d="M18.3346 10.8337V7.50033C18.3346 3.33366 16.668 1.66699 12.5013 1.66699H7.5013C3.33464 1.66699 1.66797 3.33366 1.66797 7.50033V12.5003C1.66797 16.667 3.33464 18.3337 7.5013 18.3337H10.8346" stroke="white" stroke-width="1.5" stroke-linecap="round" stroke-linejoin="round"/>
<path d="M6.10742 12.0748L8.09076 9.4998C8.37409 9.13314 8.8991 9.06648 9.26576 9.34981L10.7908 10.5498C11.1574 10.8331 11.6824 10.7665 11.9658 10.4081L13.8908 7.9248" stroke="white" stroke-width="1.5" stroke-linecap="round" stroke-linejoin="round"/>
<path d="M16.2337 13.1832L16.467 13.6582C16.5837 13.8915 16.8753 14.1082 17.1337 14.1582L17.4503 14.2082C18.4003 14.3665 18.6253 15.0665 17.942 15.7582L17.6503 16.0499C17.4587 16.2499 17.3503 16.6332 17.4087 16.8999L17.4503 17.0749C17.7087 18.2249 17.1003 18.6665 16.1003 18.0665L15.8837 17.9415C15.6253 17.7915 15.2087 17.7915 14.9503 17.9415L14.7337 18.0665C13.7253 18.6749 13.117 18.2249 13.3837 17.0749L13.4253 16.8999C13.4837 16.6332 13.3753 16.2499 13.1837 16.0499L12.892 15.7582C12.2087 15.0665 12.4337 14.3665 13.3837 14.2082L13.7003 14.1582C13.9503 14.1165 14.2503 13.8915 14.367 13.6582L14.6003 13.1832C15.0503 12.2749 15.7837 12.2749 16.2337 13.1832Z" stroke="white" stroke-width="1.5" stroke-linecap="round" stroke-linejoin="round"/>
</svg>
