<svg width="25" height="24" viewBox="0 0 25 24" fill="none" xmlns="http://www.w3.org/2000/svg">
<path fill-rule="evenodd" clip-rule="evenodd" d="M2.28516 12C2.28516 6.481 6.76516 2 12.2852 2C17.8152 2 22.2852 6.481 22.2852 12C22.2852 17.521 17.8152 22 12.2852 22C6.76516 22 2.28516 17.521 2.28516 12ZM11.4052 8.21002C11.4052 7.73102 11.8052 7.33002 12.2852 7.33002C12.7652 7.33002 13.1552 7.73102 13.1552 8.21002V12.63C13.1552 13.111 12.7652 13.5 12.2852 13.5C11.8052 13.5 11.4052 13.111 11.4052 12.63V8.21002ZM12.2952 16.681C11.8052 16.681 11.4152 16.281 11.4152 15.801C11.4152 15.321 11.8052 14.931 12.2852 14.931C12.7752 14.931 13.1652 15.321 13.1652 15.801C13.1652 16.281 12.7752 16.681 12.2952 16.681Z" fill="#FF0025"/>
</svg>
