<svg width="24" height="24" viewBox="0 0 24 24" fill="none" xmlns="http://www.w3.org/2000/svg">
<path fill-rule="evenodd" clip-rule="evenodd" d="M12.5495 13.73H14.2624C14.6683 13.73 15.0049 13.4 15.0049 12.99C15.0049 12.57 14.6683 12.24 14.2624 12.24H12.5495V10.51C12.5495 10.1 12.2228 9.77002 11.8168 9.77002C11.4109 9.77002 11.0743 10.1 11.0743 10.51V12.24H9.37128C8.96534 12.24 8.62871 12.57 8.62871 12.99C8.62871 13.4 8.96534 13.73 9.37128 13.73H11.0743V15.46C11.0743 15.87 11.4109 16.2 11.8168 16.2C12.2228 16.2 12.5495 15.87 12.5495 15.46V13.73ZM19.3381 9.02561C19.5708 9.02292 19.8242 9.02 20.0545 9.02C20.302 9.02 20.5 9.22 20.5 9.47V17.51C20.5 19.99 18.5099 22 16.0446 22H8.17327C5.59901 22 3.5 19.89 3.5 17.29V6.51C3.5 4.03 5.5 2 7.96535 2H13.2525C13.5099 2 13.7079 2.21 13.7079 2.46V5.68C13.7079 7.51 15.203 9.01 17.0149 9.02C17.4381 9.02 17.8112 9.02316 18.1377 9.02593C18.3917 9.02809 18.6175 9.03 18.8168 9.03C18.9578 9.03 19.1405 9.02789 19.3381 9.02561ZM19.61 7.56619C18.7961 7.56919 17.8367 7.56619 17.1466 7.55919C16.0516 7.55919 15.1496 6.64819 15.1496 5.54219V2.90619C15.1496 2.47519 15.6674 2.26119 15.9635 2.57219C16.4994 3.13504 17.236 3.90877 17.9691 4.67892C18.7001 5.44675 19.4276 6.21102 19.9496 6.75919C20.2387 7.06219 20.0268 7.56519 19.61 7.56619Z" fill="#130F26"/>
</svg>
