<svg width="20" height="20" viewBox="0 0 20 20" fill="none" xmlns="http://www.w3.org/2000/svg">
<path d="M18.3333 7.09984V3.3165C18.3333 2.1415 17.8 1.6665 16.475 1.6665H13.1083C11.7833 1.6665 11.25 2.1415 11.25 3.3165V7.0915C11.25 8.27484 11.7833 8.7415 13.1083 8.7415H16.475C17.8 8.74984 18.3333 8.27484 18.3333 7.09984Z" stroke="#FCFCFC" stroke-width="1.5" stroke-linecap="round" stroke-linejoin="round"/>
<path d="M18.3333 16.475V13.1083C18.3333 11.7833 17.8 11.25 16.475 11.25H13.1083C11.7833 11.25 11.25 11.7833 11.25 13.1083V16.475C11.25 17.8 11.7833 18.3333 13.1083 18.3333H16.475C17.8 18.3333 18.3333 17.8 18.3333 16.475Z" stroke="#FCFCFC" stroke-width="1.5" stroke-linecap="round" stroke-linejoin="round"/>
<path d="M8.75008 7.09984V3.3165C8.75008 2.1415 8.21675 1.6665 6.89175 1.6665H3.52508C2.20008 1.6665 1.66675 2.1415 1.66675 3.3165V7.0915C1.66675 8.27484 2.20008 8.7415 3.52508 8.7415H6.89175C8.21675 8.74984 8.75008 8.27484 8.75008 7.09984Z" stroke="#FCFCFC" stroke-width="1.5" stroke-linecap="round" stroke-linejoin="round"/>
<path d="M8.75008 16.475V13.1083C8.75008 11.7833 8.21675 11.25 6.89175 11.25H3.52508C2.20008 11.25 1.66675 11.7833 1.66675 13.1083V16.475C1.66675 17.8 2.20008 18.3333 3.52508 18.3333H6.89175C8.21675 18.3333 8.75008 17.8 8.75008 16.475Z" stroke="#FCFCFC" stroke-width="1.5" stroke-linecap="round" stroke-linejoin="round"/>
</svg>
