<svg width="58" height="48" viewBox="0 0 58 48" fill="none" xmlns="http://www.w3.org/2000/svg">
<path d="M53.153 27.581C53.3038 27.1287 53.4545 26.6764 53.5647 26.3343C53.6401 25.9865 53.6922 25.7487 53.6922 25.7487C54.1967 25.8531 55.4839 26.056 56.5333 25.1399C56.858 24.85 57.1479 24.4731 57.3567 24.0731C57.5422 23.6614 57.6756 23.2323 57.7741 22.8381C57.9597 22.0495 58.0003 21.4291 58.0003 21.4291C58.0003 21.4291 57.548 21.3711 56.9508 21.4755C56.3478 21.5798 55.5998 21.8408 55.0084 22.438C54.5852 22.8496 54.3358 23.3773 54.0981 23.8701C54.0981 23.8701 54.1271 23.7658 54.1445 23.6092C54.1619 23.4469 54.1851 23.2381 54.2083 23.0236C54.2547 22.5945 54.2952 22.1713 54.2952 22.1713C54.5098 21.9393 54.8461 21.5509 55.1186 21.0348C55.3563 20.5188 55.5419 19.8752 55.5361 19.1794C55.5766 18.2401 55.0664 17.4226 54.6895 16.8659C54.2894 16.3093 53.9184 16.0078 53.9184 16.0078C53.9184 16.0078 53.6227 16.4253 53.3443 17.0225C53.0428 17.6313 52.8689 18.4025 52.8283 19.2432C52.8283 19.8636 53.0138 20.4434 53.2516 20.9421C53.4487 21.4407 53.6748 21.864 53.8488 22.1249C53.8488 22.1249 53.7792 22.9424 53.6632 23.7542C53.4951 24.5543 53.3212 25.3603 53.3212 25.3603C53.2922 24.821 53.182 24.247 52.9037 23.7774C52.5094 23.099 51.7788 22.7395 51.2222 22.5539C50.654 22.3684 50.1959 22.3394 50.1959 22.3394C50.1959 22.3394 50.1785 22.4496 50.167 22.6409C50.1554 22.8323 50.1612 23.0932 50.138 23.3889C50.1148 23.9861 50.2017 24.7456 50.6018 25.424C51.141 26.4735 52.3239 27.0127 52.8167 27.1751C52.8167 27.1751 52.521 28.0622 52.2253 28.9551C51.831 29.8074 51.431 30.654 51.431 30.654C51.5527 30.022 51.5933 29.3204 51.3962 28.6942C51.0599 27.8245 50.3757 27.2794 49.7901 26.9432C49.1987 26.6069 48.7058 26.4677 48.7058 26.4677C48.7058 26.4677 48.5377 26.9432 48.4159 27.5983C48.242 28.2303 48.1492 29.0711 48.4217 29.9118C48.8044 31.2338 49.964 32.1383 50.4569 32.434C50.4569 32.434 49.9756 33.2052 49.4944 33.9705C48.9319 34.6779 48.3637 35.3911 48.3637 35.3911C48.6768 34.7011 48.9783 33.9473 48.845 33.1414C48.6942 32.1209 48.0854 31.373 47.523 30.8685C46.9606 30.3641 46.4503 30.0974 46.4503 30.0974C46.4503 30.0974 46.1314 30.538 45.8763 31.2222C45.5864 31.8832 45.2501 32.7181 45.3487 33.698C45.4299 35.2345 46.4793 36.5507 46.9258 36.9914C46.9258 36.9914 46.3112 37.6118 45.6676 38.209C44.9718 38.7424 44.2818 39.2816 44.2818 39.2816C44.8152 38.5975 45.3893 37.8495 45.4241 36.8928C45.511 35.7622 45.0356 34.8171 44.5485 34.1445C44.0615 33.4719 43.5686 33.0602 43.5686 33.0602C43.5686 33.0602 43.1222 33.4371 42.6931 34.0865C42.4902 34.4344 42.2119 34.7475 42.0031 35.165C41.7886 35.5766 41.6263 36.0463 41.5509 36.5797C41.2378 38.2264 42.0379 39.9832 42.38 40.5399C42.38 40.5399 42.1655 40.6674 41.8466 40.8588C41.69 40.9573 41.4987 41.0675 41.3016 41.1892C41.087 41.2878 40.6348 41.4907 40.6348 41.4907L41.5683 41.5545C41.5683 41.5545 42.7859 40.824 43.2439 40.5457C43.4759 40.4065 43.6672 40.2905 43.8006 40.2152C43.9281 40.134 43.9977 40.0702 43.9977 40.0702C44.3804 40.5862 45.5516 42.1401 47.6621 42.0474C48.9783 42.0358 50.2249 41.224 51.1816 40.4877C51.4194 40.3021 51.6397 40.1224 51.831 39.9542C52.0108 39.7745 52.1557 39.6005 52.2775 39.4556C52.5268 39.1657 52.666 38.9801 52.666 38.9801C52.666 38.9801 52.2021 38.5395 51.4425 38.1742C51.0599 37.9887 50.6076 37.8263 50.109 37.7277C49.6161 37.6408 49.0653 37.6118 48.4565 37.6698C47.4708 37.7741 46.6011 38.2264 45.8299 38.6381C45.8299 38.6381 46.0155 38.5163 46.2474 38.2728C46.4851 38.0408 46.804 37.7277 47.1229 37.4146C47.4418 37.1015 47.7607 36.7884 47.9984 36.5507C48.2188 36.3014 48.3579 36.1216 48.3579 36.1216C48.8276 36.5043 50.1901 37.5654 51.9876 37.0668C53.1356 36.7884 54.0401 35.8375 54.7243 35.0142C55.0548 34.5967 55.3389 34.2199 55.5013 33.9241C55.6578 33.6226 55.739 33.4371 55.739 33.4371C55.739 33.4371 55.2461 33.1356 54.504 32.9616C54.1329 32.8747 53.7038 32.8109 53.2516 32.8283C52.7819 32.8283 52.2659 32.9037 51.7556 33.0834C50.9555 33.3675 50.3003 33.901 49.7321 34.4112C49.7321 34.4112 49.7727 34.3648 49.8307 34.2894C49.8828 34.2025 49.964 34.0807 50.051 33.9357C50.2365 33.64 50.4801 33.2516 50.7236 32.8573C50.9671 32.463 51.2164 32.0803 51.3904 31.773C51.5353 31.4599 51.6339 31.2512 51.6339 31.2512C52.1383 31.4947 53.5357 32.0919 54.962 31.315C55.3969 31.0714 55.8318 30.7294 56.1449 30.3177C56.4522 29.906 56.7073 29.4538 56.916 29.0363C57.3219 28.1956 57.519 27.5056 57.519 27.5056C57.519 27.5056 57.032 27.3374 56.342 27.3142C55.652 27.291 54.7533 27.407 53.9532 27.923C53.3443 28.2999 52.9211 28.8623 52.521 29.39C52.521 29.39 52.637 29.1754 52.7355 28.8334C52.8457 28.4913 53.0023 28.039 53.153 27.5867V27.581Z" fill="#FFA70F"/>
<path d="M17.3655 41.4829C17.3655 41.4829 16.9132 41.2742 16.6987 41.1814C16.5016 41.0597 16.3102 40.9495 16.1537 40.8509C15.8348 40.6596 15.6203 40.532 15.6203 40.532C15.9623 39.9754 16.7683 38.2186 16.4494 36.5719C16.374 36.0385 16.2117 35.5688 15.9971 35.1571C15.7942 34.7397 15.5101 34.4266 15.3072 34.0787C14.8781 33.4293 14.4316 33.0524 14.4316 33.0524C14.4316 33.0524 13.9446 33.4641 13.4575 34.1367C12.9705 34.8092 12.495 35.7543 12.582 36.885C12.6226 37.8417 13.1908 38.5954 13.7243 39.2738C13.7243 39.2738 13.0343 38.7346 12.3385 38.2012C11.7007 37.604 11.0803 36.9836 11.0803 36.9836C11.5268 36.5429 12.5762 35.2267 12.6574 33.6902C12.756 32.7103 12.4197 31.8754 12.1298 31.2144C11.8746 30.5302 11.5557 30.0895 11.5557 30.0895C11.5557 30.0895 11.0455 30.3563 10.4831 30.8607C9.92066 31.3651 9.31185 32.1131 9.1611 33.1336C9.02774 33.9395 9.32925 34.6933 9.64235 35.3833C9.64235 35.3833 9.07413 34.6759 8.51171 33.9627C8.03046 33.1974 7.54921 32.4262 7.54921 32.4262C8.04205 32.1247 9.20169 31.226 9.58437 29.904C9.85688 29.0633 9.76411 28.2283 9.59017 27.5905C9.4742 26.9353 9.30026 26.4599 9.30026 26.4599C9.30026 26.4599 8.80741 26.599 8.216 26.9353C7.63038 27.2716 6.9462 27.8225 6.60991 28.6864C6.41277 29.3068 6.45336 30.0084 6.57512 30.6462C6.57512 30.6462 6.17505 29.7938 5.78077 28.9473C5.48506 28.0544 5.18936 27.1673 5.18936 27.1673C5.6822 27.0049 6.86503 26.4657 7.40426 25.4162C7.80433 24.7378 7.8913 23.9783 7.86811 23.3811C7.84492 23.0854 7.84492 22.8186 7.83912 22.6331C7.82752 22.4476 7.81013 22.3316 7.81013 22.3316C7.81013 22.3316 7.35787 22.3606 6.78385 22.5461C6.22723 22.7317 5.49666 23.0854 5.10239 23.7695C4.82407 24.245 4.71391 24.8132 4.68492 25.3524C4.68492 25.3524 4.51097 24.5523 4.34282 23.7463C4.22686 22.9346 4.15728 22.1171 4.15728 22.1171C4.32543 21.8561 4.55736 21.4329 4.7487 20.9342C4.98642 20.4298 5.17196 19.85 5.17196 19.2354C5.13138 18.3946 4.95743 17.6235 4.65593 17.0147C4.37761 16.4117 4.08191 16 4.08191 16C4.08191 16 3.71083 16.3015 3.31075 16.8581C2.93387 17.409 2.42363 18.2265 2.46422 19.1716C2.46422 19.8674 2.64976 20.511 2.88169 21.027C3.1542 21.543 3.49049 21.9315 3.70503 22.1635C3.70503 22.1635 3.74561 22.5925 3.792 23.0158C3.81519 23.2303 3.83839 23.4448 3.85578 23.6014C3.87897 23.7637 3.90216 23.8623 3.90216 23.8623C3.66444 23.3637 3.41512 22.8418 2.99185 22.4302C2.40044 21.8388 1.65248 21.572 1.04947 21.4677C0.452257 21.3633 0 21.4213 0 21.4213C0 21.4213 0.034789 22.0475 0.226128 22.8302C0.324697 23.2245 0.458055 23.6536 0.643596 24.0652C0.846532 24.4711 1.13644 24.8422 1.46694 25.1321C2.5164 26.0482 3.8036 25.8453 4.30804 25.7409C4.30804 25.7409 4.36022 25.9728 4.4356 26.3265C4.54576 26.6686 4.69651 27.1209 4.84727 27.5731C4.99802 28.0254 5.15457 28.4777 5.26473 28.8197C5.3633 29.1618 5.47927 29.3764 5.47927 29.3764C5.07919 28.8545 4.65593 28.2863 4.04712 27.9094C3.24697 27.3934 2.34826 27.2774 1.65828 27.3006C0.968293 27.3238 0.481248 27.492 0.481248 27.492C0.481248 27.492 0.678385 28.1819 1.08426 29.0227C1.28719 29.4401 1.54231 29.8924 1.85541 30.3041C2.16272 30.7157 2.60338 31.0578 3.03824 31.3014C4.46459 32.0783 5.85615 31.4811 6.36638 31.2376C6.36638 31.2376 6.46495 31.4463 6.60991 31.7594C6.78385 32.0609 7.03317 32.4494 7.2767 32.8437C7.52022 33.2379 7.76374 33.6264 7.94928 33.9221C8.04205 34.0671 8.11743 34.1888 8.17541 34.2758C8.23919 34.3512 8.27398 34.3976 8.27398 34.3976C7.70576 33.8873 7.05637 33.3539 6.25042 33.0698C5.74018 32.8843 5.22994 32.8147 4.7545 32.8147C4.30224 32.8031 3.87317 32.8611 3.50209 32.948C2.76572 33.122 2.26708 33.4235 2.26708 33.4235C2.26708 33.4235 2.34826 33.6148 2.50481 33.9105C2.66716 34.2062 2.95127 34.5831 3.28176 35.0006C3.96015 35.8239 4.87046 36.7748 6.0185 37.0531C7.81593 37.5518 9.1785 36.4907 9.64815 36.108C9.64815 36.108 9.7815 36.2878 10.0076 36.5371C10.2454 36.7748 10.5643 37.0879 10.8832 37.401C11.2021 37.7141 11.521 38.0272 11.7587 38.2592C11.9906 38.5027 12.1761 38.6244 12.1761 38.6244C11.405 38.2186 10.5353 37.7663 9.54958 37.6561C8.94077 37.5924 8.38415 37.6214 7.8971 37.7141C7.39846 37.8069 6.9462 37.975 6.56352 38.1606C5.80396 38.5259 5.34011 38.9665 5.34011 38.9665C5.34011 38.9665 5.47927 39.1521 5.72859 39.442C5.85035 39.5869 6.0011 39.7609 6.17505 39.9406C6.36638 40.1088 6.58672 40.2885 6.82444 40.4741C7.78694 41.2046 9.02774 42.0164 10.3439 42.0338C12.4487 42.1207 13.6199 40.5726 14.0084 40.0566C14.0084 40.0566 14.0779 40.1146 14.2055 40.2015C14.3389 40.2827 14.5302 40.3987 14.7621 40.532C15.2202 40.8046 16.4378 41.5409 16.4378 41.5409L17.3713 41.4771L17.3655 41.4829Z" fill="#FFA70F"/>
<path d="M21.5 42L22.2755 43.3139L24 43.528L22.75 44.5499L23.0451 46L21.5 45.3139L19.9549 46L20.25 44.5499L19 43.528L20.7303 43.3139L21.5 42Z" fill="#FFA70F"/>
<path d="M29 42L29.9306 43.9781L32 44.292L30.5 45.8321L30.8542 48L29 46.9781L27.1458 48L27.5 45.8321L26 44.292L28.0694 43.9781L29 42Z" fill="#FFA70F"/>
<path d="M36.5 42L37.2755 43.3139L39 43.528L37.75 44.5499L38.0451 46L36.5 45.3139L34.9549 46L35.25 44.5499L34 43.528L35.7245 43.3139L36.5 42Z" fill="#FFA70F"/>
<path d="M28.4327 24V12.92L26.1327 13.46V11.5L29.5127 10H31.0927V24H28.4327Z" fill="#FFA70F"/>
<rect x="14" y="2" width="30" height="30" rx="15" stroke="#FFA70F" stroke-width="4"/>
</svg>
